<svg width="799" height="167" viewBox="0 0 799 167" fill="none" xmlns="http://www.w3.org/2000/svg">
<path d="M0.4 53H55.2V65.6L41.8 67.8L55.4 117.6L59.6 137.4L63.2 117.6L80.4 53H107.4L127.2 117.6L131.4 137.2L135.4 117.6L148 68L133.6 65.6V53H177.6V65.6L168 67.8L137.8 165.6H112.4L92.6 104.4L88.4 81.2L85.4 104.4L67.6 165.6H41.6L9.8 67.8L0.4 65.6V53ZM232.164 166.2C213.897 166.2 200.364 161.067 191.564 150.8C182.764 140.4 178.364 126.267 178.364 108.4C178.364 96.2667 180.631 85.8 185.164 77C189.697 68.2 196.031 61.5333 204.164 57C212.431 52.3333 222.097 50 233.164 50C247.164 50 257.831 53.5333 265.164 60.6C272.631 67.6667 276.497 77.6667 276.764 90.6C276.764 99.1333 276.164 106 274.964 111.2H212.364C213.031 122.533 215.764 131.2 220.564 137.2C225.497 143.067 232.364 146 241.164 146C246.097 146 251.231 145.2 256.564 143.6C262.031 141.867 266.431 139.933 269.764 137.8L275.364 150C271.897 153.867 265.964 157.533 257.564 161C249.297 164.467 240.831 166.2 232.164 166.2ZM244.964 98L245.164 89.6C245.164 81.2 244.031 74.8 241.764 70.4C239.497 66 235.631 63.8 230.164 63.8C224.564 63.8 220.231 66.2667 217.164 71.2C214.097 76 212.431 84.9333 212.164 98H244.964ZM283.106 4.79999L322.506 -1.04904e-05H322.906L329.306 4V62.4C332.773 58.8 337.04 55.8667 342.106 53.6C347.173 51.2 352.573 50 358.306 50C371.106 50 381.44 54.5333 389.306 63.6C397.306 72.5333 401.306 86.2667 401.306 104.8C401.306 116.4 398.84 126.867 393.906 136.2C389.106 145.533 382.173 152.867 373.106 158.2C364.04 163.533 353.44 166.2 341.306 166.2C329.84 166.2 320.24 165.333 312.506 163.6C304.773 161.733 299.706 160.067 297.306 158.6V19L283.106 16.4V4.79999ZM345.906 69.6C342.573 69.6 339.44 70.3333 336.506 71.8C333.573 73.2667 331.173 75 329.306 77V149.4C329.84 150.733 331.306 151.8 333.706 152.6C336.24 153.4 339.106 153.8 342.306 153.8C349.773 153.8 355.706 149.867 360.106 142C364.506 134.133 366.706 122.533 366.706 107.2C366.706 94.2667 364.84 84.8 361.106 78.8C357.373 72.6667 352.306 69.6 345.906 69.6ZM441.306 147.4C442.24 148.867 444.373 150.2 447.706 151.4C451.173 152.6 454.64 153.2 458.106 153.2C463.573 153.2 467.706 152.067 470.506 149.8C473.44 147.4 474.906 144.333 474.906 140.6C474.906 136.6 473.04 133.333 469.306 130.8C465.573 128.133 459.44 124.933 450.906 121.2L443.306 117.8C434.64 113.933 428.106 109.267 423.706 103.8C419.44 98.2 417.306 91.1333 417.306 82.6C417.306 76.4667 419.106 71 422.706 66.2C426.306 61.2667 431.506 57.4 438.306 54.6C445.106 51.8 453.106 50.4 462.306 50.4C468.706 50.4 474.24 50.8 478.906 51.6C483.573 52.4 488.306 53.4 493.106 54.6C496.306 55.5333 498.706 56.0667 500.306 56.2V83.4H482.506L477.306 68C476.64 66.8 475.04 65.7333 472.506 64.8C469.973 63.7333 467.106 63.2 463.906 63.2C458.84 63.2 454.84 64.3333 451.906 66.6C448.973 68.7333 447.506 71.6667 447.506 75.4C447.506 79.6667 449.173 83.0667 452.506 85.6C455.84 88 461.173 90.8667 468.506 94.2L472.706 96C483.506 100.533 491.973 105.467 498.106 110.8C504.24 116 507.306 123.2 507.306 132.4C507.306 142.267 503.373 150.4 495.506 156.8C487.64 163.067 476.04 166.2 460.706 166.2C453.64 166.2 447.373 165.6 441.906 164.4C436.44 163.333 430.44 161.867 423.906 160L417.306 158.2V131.6H436.306L441.306 147.4ZM555.77 165.8C546.97 165.8 540.437 163.8 536.17 159.8C532.037 155.667 529.97 149.333 529.97 140.8V69.6H517.77V58L521.77 56.4C524.97 55.3333 527.77 54.2 530.17 53C532.837 50.4667 534.97 47.1333 536.57 43C538.57 38.2 540.77 31.4667 543.17 22.8H561.77L562.97 52.8H591.57V69.6H563.37V122.6C563.37 129.933 563.57 135.067 563.97 138C564.37 140.933 565.104 142.867 566.17 143.8C567.37 144.6 569.504 145 572.57 145C578.837 145 584.77 143.933 590.37 141.8L594.57 154.4C590.837 157.467 585.304 160.133 577.97 162.4C570.637 164.667 563.237 165.8 555.77 165.8ZM655.211 166.2C636.944 166.2 623.411 161.067 614.611 150.8C605.811 140.4 601.411 126.267 601.411 108.4C601.411 96.2667 603.678 85.8 608.211 77C612.744 68.2 619.078 61.5333 627.211 57C635.478 52.3333 645.144 50 656.211 50C670.211 50 680.878 53.5333 688.211 60.6C695.678 67.6667 699.544 77.6667 699.811 90.6C699.811 99.1333 699.211 106 698.011 111.2H635.411C636.078 122.533 638.811 131.2 643.611 137.2C648.544 143.067 655.411 146 664.211 146C669.144 146 674.278 145.2 679.611 143.6C685.078 141.867 689.478 139.933 692.811 137.8L698.411 150C694.944 153.867 689.011 157.533 680.611 161C672.344 164.467 663.878 166.2 655.211 166.2ZM668.011 98L668.211 89.6C668.211 81.2 667.078 74.8 664.811 70.4C662.544 66 658.678 63.8 653.211 63.8C647.611 63.8 643.278 66.2667 640.211 71.2C637.144 76 635.478 84.9333 635.211 98H668.011ZM714.553 150.8L726.753 149V73.8L714.953 70.2V54.6L748.153 50.2H748.753L754.353 54.4V59.2L753.753 75.8H754.353C755.286 72.7333 757.42 69.2 760.753 65.2C764.086 61.0667 768.286 57.5333 773.353 54.6C778.553 51.5333 784.153 50 790.153 50C793.62 50 796.286 50.4667 798.153 51.4V86.2C796.02 84.6 793.686 83.3333 791.153 82.4C788.753 81.4667 785.62 81 781.753 81C776.953 81 772.62 81.6667 768.753 83C764.886 84.2 761.82 85.6 759.553 87.2V149L781.553 151V164H714.553V150.8Z" fill="black"/>
</svg>
